 <svg  version="1.0" xmlns="http://www.w3.org/2000/svg"  width="786.000000pt" height="948.000000pt" viewBox="0 0 786.000000 948.000000"  preserveAspectRatio="xMidYMid meet">  <g transform="translate(0.000000,948.000000) scale(0.100000,-0.100000)" fill="#2f1818" stroke="none"> <path d="M2695 7939 c-139 -6 -223 -19 -280 -44 -16 -7 -55 -21 -85 -31 -63 -19 -146 -59 -155 -74 -3 -5 -13 -10 -21 -10 -19 0 -126 -72 -179 -121 -22 -20 -45 -38 -52 -40 -17 -6 -159 -166 -202 -229 -54 -77 -115 -195 -136 -260 -10 -30 -21 -59 -25 -65 -14 -17 -39 -117 -50 -195 -7 -50 -11 -516 -10 -1380 0 -1416 0 -1425 54 -1565 15 -38 37 -93 48 -122 11 -29 26 -57 34 -64 8 -6 14 -18 14 -26 0 -30 102 -173 191 -268 27 -29 65 -68 74 -76 102 -89 211 -165 276 -192 20 -8 39 -20 43 -25 3 -6 45 -22 94 -37 48 -15 112 -36 144 -46 31 -11 94 -24 140 -29 120 -14 2531 -13 2656 1 53 6 117 19 142 29 25 10 87 30 138 44 52 15 115 39 140 54 26 15 59 34 74 42 106 58 303 237 381 346 118 164 183 316 240 559 9 37 12 394 12 1380 0 1347 -1 1402 -35 1450 -3 6 -13 37 -20 70 -27 126 -111 296 -209 423 -53 70 -242 254 -279 273 -15 7 -36 21 -47 31 -11 9 -43 27 -70 39 -28 12 -61 30 -75 39 -35 25 -189 78 -290 101 -80 18 -153 19 -1310 21 -674 2 -1288 0 -1365 -3z m2680 -113 c19 -24 32 -29 96 -37 41 -4 84 -8 95 -9 15 0 24 -8 28 -25 4 -16 16 -27 34 -31 86 -19 98 -25 114 -54 10 -18 25 -30 38 -30 12 0 32 -12 46 -27 14 -15 40 -36 59 -47 40 -25 135 -128 158 -172 9 -17 27 -39 41 -48 16 -10 26 -26 26 -41 0 -16 10 -31 28 -42 36 -23 39 -29 47 -82 9 -59 21 -81 44 -81 17 0 20 -11 26 -97 8 -122 19 -164 47 -191 21 -19 23 -30 22 -104 -1 -46 -2 -635 -3 -1310 -1 -1200 -1 -1228 -20 -1245 -30 -28 -38 -58 -46 -170 -6 -91 -9 -103 -26 -103 -23 0 -35 -22 -44 -81 -8 -53 -11 -59 -47 -82 -18 -11 -28 -26 -28 -42 0 -26 -24 -55 -45 -55 -7 0 -16 -13 -20 -29 -4 -18 -36 -57 -93 -109 -48 -45 -102 -95 -119 -112 -18 -18 -45 -35 -60 -39 -16 -4 -34 -19 -41 -33 -10 -22 -21 -28 -68 -34 -48 -6 -59 -11 -73 -36 -17 -31 -26 -34 -116 -42 -78 -7 -122 -23 -128 -47 -5 -19 -25 -19 -1405 -17 l-1400 3 -18 23 c-21 25 -76 41 -142 42 -35 0 -49 6 -77 34 -25 25 -47 37 -80 42 -34 5 -49 12 -55 28 -5 13 -26 28 -58 39 -31 11 -59 29 -71 46 -12 16 -32 31 -45 35 -15 4 -28 17 -34 36 -7 19 -20 32 -37 36 -17 4 -31 18 -40 41 -8 19 -24 37 -35 40 -13 3 -29 24 -41 54 -12 26 -31 55 -44 63 -15 10 -24 28 -28 58 -3 24 -13 47 -22 53 -41 24 -46 33 -51 85 -9 83 -23 120 -50 130 l-24 10 0 1475 c0 1418 1 1475 18 1475 23 0 52 58 53 108 2 57 12 82 39 95 18 9 28 25 35 58 6 29 22 57 41 77 17 17 34 45 37 62 5 23 15 34 36 41 19 7 33 21 40 40 5 16 21 33 34 38 14 5 29 23 35 39 7 21 18 31 41 35 23 5 35 15 42 36 8 23 19 31 52 40 28 7 50 21 65 41 15 19 31 30 48 30 33 0 81 25 94 49 8 15 25 21 77 26 105 10 125 15 130 36 3 11 15 21 27 24 11 2 30 6 41 9 11 2 640 3 1398 2 l1379 -1 23 -29z"/> <path d="M2768 7195 c-20 -41 -21 -48 -8 -68 13 -19 15 -198 18 -1314 2 -1157 1 -1296 -14 -1335 -8 -24 -17 -50 -20 -58 -3 -10 8 -22 30 -34 31 -17 42 -17 93 -7 41 8 272 11 754 11 383 0 716 2 740 6 25 4 55 17 70 30 20 19 41 26 95 30 60 6 73 11 104 39 19 19 54 38 77 45 32 8 44 17 49 35 4 14 17 28 35 34 19 7 35 22 44 44 9 22 23 37 40 41 19 5 27 16 36 52 8 31 19 49 35 56 23 11 44 54 44 91 0 11 14 33 32 47 31 26 33 32 39 115 6 74 10 91 29 105 33 25 40 77 40 330 0 246 -7 304 -42 331 -15 12 -21 33 -27 104 -8 82 -11 90 -39 114 -21 18 -32 39 -37 67 -4 27 -17 51 -36 70 -16 15 -34 45 -39 65 -7 26 -18 40 -38 48 -16 7 -33 25 -39 41 -7 18 -21 32 -36 35 -15 4 -30 18 -37 35 -9 21 -23 31 -55 40 -26 7 -51 23 -63 40 -19 24 -29 28 -98 35 -64 6 -80 11 -98 32 -11 13 -39 28 -61 33 -22 5 -251 10 -510 10 -424 0 -546 5 -596 25 -9 3 -24 -1 -33 -10 -13 -14 -16 -40 -16 -154 0 -147 11 -201 39 -201 10 0 21 3 25 7 3 4 23 13 44 22 29 12 105 15 371 18 304 4 335 3 352 -13 24 -21 79 -31 239 -44 151 -12 174 -16 167 -35 -7 -18 12 -33 52 -41 24 -5 35 -15 46 -40 8 -20 21 -34 36 -36 16 -2 25 -13 33 -41 7 -24 20 -42 36 -50 20 -10 28 -26 38 -75 10 -45 20 -65 35 -74 12 -6 25 -16 29 -22 4 -6 8 -158 8 -337 l0 -326 -35 -36 c-20 -21 -35 -46 -35 -60 0 -40 -19 -82 -43 -92 -12 -6 -27 -25 -33 -44 -7 -23 -21 -38 -42 -46 -19 -8 -32 -22 -34 -36 -2 -15 -14 -26 -41 -35 -21 -8 -51 -26 -65 -42 -27 -28 -29 -29 -168 -35 -179 -7 -357 -28 -366 -41 -5 -7 -127 -13 -355 -17 -372 -7 -436 -13 -441 -41 -7 -37 35 -40 548 -36 473 4 498 5 555 25 33 12 85 23 115 26 69 6 163 41 197 73 14 13 30 24 36 24 15 0 111 101 140 147 14 23 31 44 37 48 14 9 62 113 91 200 23 67 24 81 23 335 0 238 -2 273 -22 347 -22 87 -75 194 -123 253 -71 86 -116 133 -144 147 -16 9 -44 28 -60 42 -19 16 -55 32 -90 40 -33 7 -77 19 -97 27 -62 23 -246 36 -604 42 -254 5 -345 10 -356 20 -24 20 -28 60 -8 85 l18 22 394 -1 c370 -2 511 -10 572 -34 12 -5 55 -16 96 -25 87 -20 162 -57 242 -120 50 -39 80 -73 181 -200 50 -63 109 -210 132 -329 7 -39 20 -84 29 -101 22 -41 23 -334 2 -397 -8 -24 -24 -87 -35 -140 -11 -53 -25 -105 -30 -115 -6 -10 -24 -49 -40 -86 -34 -77 -131 -206 -213 -283 -77 -73 -216 -135 -353 -159 -22 -4 -46 -11 -52 -17 -24 -20 -325 -29 -861 -26 l-543 3 -19 25 c-19 24 -20 58 -20 1281 l0 1256 23 34 23 34 519 3 c495 3 872 -8 975 -28 116 -23 248 -61 340 -97 201 -80 312 -155 460 -311 94 -98 126 -140 173 -221 141 -243 175 -330 226 -587 29 -144 31 -164 30 -380 0 -126 -4 -249 -9 -274 -5 -25 -16 -79 -24 -120 -23 -123 -42 -193 -65 -237 -11 -23 -21 -47 -21 -53 0 -17 -87 -196 -127 -261 -123 -198 -329 -395 -503 -481 -189 -92 -211 -100 -388 -133 -46 -9 -95 -21 -110 -27 -43 -17 -84 -18 -787 -24 l-670 -6 -27 22 c-36 28 -37 64 -1 87 25 17 77 18 683 24 633 5 658 6 750 27 52 13 120 28 150 33 108 21 145 31 195 53 27 12 66 29 85 36 35 14 86 46 189 117 85 60 185 167 283 304 45 64 129 221 148 279 10 30 25 71 33 90 15 34 35 124 42 185 2 17 11 66 19 110 19 94 22 392 5 476 -6 30 -17 92 -25 139 -23 139 -32 177 -54 219 -11 22 -20 48 -20 57 0 18 -104 220 -143 277 -92 135 -249 292 -366 364 -44 27 -140 73 -153 73 -5 0 -21 9 -36 20 -24 18 -89 36 -307 86 -113 26 -362 36 -795 32 -430 -4 -500 -10 -500 -42 0 -8 8 -17 18 -21 9 -5 267 -11 572 -15 537 -8 610 -12 610 -39 0 -16 67 -29 190 -36 108 -7 116 -9 141 -36 21 -22 38 -29 87 -35 56 -6 63 -10 81 -39 14 -24 29 -34 55 -39 22 -4 42 -16 52 -31 8 -13 35 -33 58 -44 29 -13 46 -28 50 -44 3 -14 18 -30 35 -37 18 -7 34 -24 40 -41 5 -16 24 -42 42 -58 17 -16 34 -44 38 -62 4 -22 16 -38 36 -49 17 -10 32 -28 36 -46 4 -16 10 -42 13 -57 4 -16 16 -31 30 -37 24 -9 36 -47 36 -117 0 -23 9 -42 33 -65 l33 -33 13 -235 c11 -188 11 -277 2 -445 -15 -268 -16 -274 -46 -285 -24 -9 -27 -16 -40 -123 -5 -39 -11 -50 -30 -57 -15 -6 -27 -20 -31 -37 -3 -15 -9 -41 -13 -57 -4 -18 -19 -36 -36 -46 -19 -10 -32 -27 -36 -47 -8 -38 -17 -53 -33 -53 -7 0 -24 -23 -37 -50 -15 -32 -36 -58 -58 -71 -18 -11 -35 -28 -38 -38 -3 -10 -23 -27 -44 -37 -22 -10 -49 -30 -60 -45 -11 -16 -34 -31 -56 -36 -25 -6 -42 -17 -50 -33 -14 -28 -38 -37 -96 -39 -46 -1 -77 -16 -77 -37 0 -23 -35 -31 -165 -38 -130 -7 -233 -26 -226 -41 3 -6 -8 -13 -25 -16 -16 -4 -312 -7 -659 -7 -500 -1 -638 2 -667 12 -32 11 -42 11 -65 -1 -51 -26 -57 -37 -38 -73 17 -32 17 -119 0 -182 -6 -21 -1 -33 27 -63 l34 -37 44 24 45 23 620 2 c341 1 703 4 803 8 l184 7 34 30 c30 27 44 31 107 35 100 6 114 10 149 43 19 18 42 30 58 30 44 0 87 19 98 45 7 14 23 27 39 30 41 9 57 19 68 43 5 11 21 24 34 27 14 4 41 23 61 43 19 20 52 52 72 70 21 18 46 45 55 60 10 15 30 38 46 50 15 13 27 30 27 38 0 7 12 21 28 31 34 22 42 33 42 60 0 12 12 31 26 42 25 20 53 78 54 113 0 9 10 20 23 24 30 9 35 20 42 84 5 41 13 60 32 76 29 24 42 75 43 159 0 53 4 65 31 99 31 37 32 42 41 174 8 139 3 592 -8 670 -4 25 -13 46 -23 52 -22 11 -41 73 -41 131 -1 68 -16 121 -42 140 -17 13 -26 34 -33 81 -8 53 -14 65 -36 75 -20 10 -28 25 -38 68 -9 41 -20 60 -42 75 -18 13 -29 30 -29 45 0 26 -24 55 -45 55 -7 0 -18 13 -23 30 -10 28 -35 58 -116 140 -59 60 -123 113 -145 122 -12 4 -26 19 -31 32 -6 16 -20 28 -37 32 -56 12 -62 15 -68 34 -6 18 -84 50 -121 50 -7 0 -21 12 -32 26 -20 28 -72 42 -159 43 -28 1 -48 8 -60 20 -10 10 -29 24 -41 30 -35 19 -394 31 -1047 38 -525 5 -575 6 -627 24 -32 10 -64 19 -73 19 -8 0 -25 -20 -37 -45z"/> <path d="M3019 6869 c-17 -32 -27 -496 -28 -1349 -1 -619 4 -754 30 -802 14 -27 29 -11 36 38 10 69 14 1286 6 1706 -8 415 -13 462 -44 407z"/> <path d="M2162 6603 c-29 -6 -45 -44 -32 -79 15 -39 13 -2026 -2 -2076 -19 -64 -9 -69 181 -71 141 -2 164 -1 177 14 13 14 13 24 5 56 -7 25 -11 310 -12 853 -1 448 -4 853 -7 900 -6 76 -9 85 -27 85 -16 0 -23 -12 -37 -60 -15 -54 -16 -145 -17 -873 -1 -906 1 -872 -65 -872 -71 0 -66 -72 -66 1007 0 1137 -15 1018 125 1018 79 0 88 -2 106 -24 25 -31 24 -82 -2 -115 -23 -29 -19 -56 7 -56 9 0 32 -10 51 -21 32 -20 36 -20 51 -5 14 13 17 42 18 161 2 108 -1 147 -11 155 -9 7 -40 7 -110 -1 -54 -6 -125 -9 -159 -5 -33 3 -81 8 -106 10 -25 2 -55 2 -68 -1z"/> <path d="M1640 2352 c-141 -2 -167 -5 -185 -20 -11 -10 -33 -24 -49 -31 -27 -11 -28 -13 -13 -28 14 -14 57 -17 299 -21 l283 -5 27 -30 c16 -16 45 -35 66 -42 25 -9 41 -22 51 -43 8 -18 26 -35 43 -41 31 -11 32 -13 44 -86 8 -41 13 -50 34 -55 25 -6 25 -7 28 -130 3 -147 0 -168 -30 -172 -19 -2 -25 -13 -36 -66 -13 -56 -18 -65 -48 -79 -19 -10 -37 -28 -43 -44 -7 -21 -20 -30 -53 -39 -72 -20 -88 -29 -88 -49 0 -11 -9 -21 -22 -25 -13 -3 -139 -6 -280 -6 -141 0 -263 -3 -272 -6 -9 -3 -16 -12 -16 -19 0 -49 120 -70 350 -62 178 6 237 18 321 63 75 41 188 149 212 204 11 25 28 54 38 66 31 34 61 169 54 244 -7 81 -30 152 -55 175 -11 10 -20 26 -20 37 0 42 -100 159 -192 224 -45 32 -154 69 -243 83 -22 3 -114 5 -205 3z"/> <path d="M2870 2350 c-136 -25 -214 -69 -317 -179 -52 -55 -60 -69 -122 -201 -55 -118 -50 -227 15 -372 53 -117 175 -268 217 -268 8 0 22 -9 31 -19 49 -54 260 -80 416 -53 142 26 290 154 370 321 22 47 44 93 49 101 14 25 35 17 42 -17 37 -184 279 -409 444 -413 284 -6 347 14 487 152 62 62 73 93 36 107 -18 7 -29 4 -49 -15 -14 -13 -29 -24 -33 -24 -5 0 -17 -11 -28 -25 -10 -14 -34 -28 -51 -33 -18 -5 -37 -19 -44 -32 -7 -14 -20 -28 -30 -31 -22 -9 -327 -9 -366 0 -16 3 -33 17 -40 31 -8 16 -26 28 -49 34 -28 7 -40 17 -47 38 -6 18 -21 33 -39 39 -22 7 -31 19 -36 41 -7 35 -32 68 -51 68 -18 0 -25 58 -25 200 0 142 7 200 25 200 17 0 41 30 52 65 5 17 21 36 37 43 15 8 31 25 36 38 6 16 20 27 40 31 20 4 36 16 45 34 8 15 25 31 37 35 13 4 102 8 198 8 181 0 213 -6 225 -42 3 -11 22 -24 44 -31 21 -6 58 -29 80 -52 47 -45 84 -50 89 -11 2 16 -13 39 -54 82 -31 33 -62 60 -67 60 -6 0 -20 8 -31 18 -57 50 -221 89 -333 79 -33 -3 -99 -18 -145 -33 -154 -50 -283 -184 -352 -367 -10 -26 -23 -46 -30 -44 -6 2 -31 44 -56 94 -111 220 -281 341 -495 349 -44 1 -100 -1 -125 -6z m305 -110 c14 -5 30 -21 35 -34 6 -18 19 -27 45 -32 28 -5 39 -13 50 -40 8 -19 25 -38 39 -44 19 -7 27 -20 36 -63 8 -39 19 -62 40 -81 l30 -26 0 -130 c0 -100 -3 -130 -13 -130 -29 0 -48 -27 -58 -87 -9 -52 -14 -62 -35 -67 -15 -4 -31 -21 -42 -43 -14 -29 -26 -39 -66 -51 -31 -10 -51 -23 -54 -35 -8 -30 -45 -37 -206 -37 -180 0 -209 4 -221 33 -6 13 -31 30 -63 42 -33 13 -54 27 -58 40 -3 11 -22 34 -41 51 -29 26 -38 43 -48 90 -9 47 -17 62 -37 71 -22 11 -26 20 -30 80 -3 38 -2 93 1 123 5 44 10 56 26 59 27 5 32 15 40 83 6 48 11 61 29 68 27 10 53 39 58 65 2 12 14 21 35 26 38 7 63 26 63 45 0 29 115 44 288 38 72 -2 143 -9 157 -14z"/> <path d="M2881 2009 c-55 -11 -65 -19 -97 -85 -15 -30 -35 -59 -45 -65 -30 -16 -26 -93 6 -123 14 -13 25 -31 25 -39 0 -9 23 -40 51 -69 l51 -52 93 -1 94 0 46 45 c25 24 48 53 51 65 4 11 17 30 30 42 19 17 24 32 24 72 0 41 -5 56 -33 89 -19 22 -39 54 -46 70 -23 55 -126 76 -250 51z m155 -133 c29 -29 34 -41 34 -81 0 -87 -80 -131 -160 -90 -37 19 -50 43 -50 90 0 46 26 92 60 104 50 19 80 13 116 -23z"/> <path d="M5945 2337 c-11 -8 -36 -19 -56 -26 -89 -29 -132 -143 -95 -249 18 -49 90 -119 133 -128 65 -13 67 -21 73 -278 l6 -231 29 -60 c44 -88 66 -100 181 -100 l95 0 30 35 c66 77 72 103 79 350 3 124 10 232 14 241 4 9 29 26 56 39 112 52 163 162 130 280 -13 47 -62 100 -93 100 -16 0 -26 7 -30 19 -4 18 -19 19 -268 20 -212 1 -268 -1 -284 -12z m214 -84 c122 -3 249 0 293 6 43 6 84 8 92 5 18 -7 22 -37 18 -161 l-3 -103 -36 0 c-19 0 -66 8 -104 17 -60 14 -72 15 -83 2 -11 -11 -12 -67 -5 -304 4 -159 10 -303 14 -320 10 -51 -1 -56 -129 -58 -65 -1 -121 0 -126 3 -4 3 -4 154 0 335 7 306 6 331 -10 348 -13 15 -22 16 -36 9 -27 -15 -107 -32 -148 -32 l-36 0 1 120 c1 135 10 158 58 145 14 -4 122 -10 240 -12z"/> <path d="M5398 2315 c-27 -14 -48 -29 -48 -34 0 -13 74 -22 162 -20 62 2 82 -1 97 -15 18 -17 19 -17 26 4 13 42 -46 76 -150 86 -29 3 -53 -3 -87 -21z"/> <path d="M5294 2225 c-19 -46 -20 -790 -1 -844 14 -40 31 -49 43 -24 11 23 18 686 9 811 -8 102 -24 121 -51 57z"/> <path d="M1310 2214 c-11 -29 -12 -784 -1 -823 9 -35 25 -36 42 -4 20 39 26 711 8 796 -14 62 -33 74 -49 31z"/> <path d="M5672 2185 c-12 -9 -30 -15 -39 -13 -14 2 -19 -7 -25 -47 -8 -64 -8 -570 1 -650 7 -65 2 -62 74 -48 21 4 27 11 27 32 -1 14 1 181 3 371 2 190 2 351 0 358 -6 16 -14 15 -41 -3z"/> <path d="M1663 2018 c-22 -5 -44 -16 -47 -24 -7 -17 12 -92 26 -108 16 -19 9 -140 -14 -208 -17 -53 -19 -70 -9 -81 18 -22 74 -29 175 -21 l91 6 48 49 c26 27 47 55 47 63 0 7 11 21 25 30 22 14 25 24 25 74 0 52 -4 63 -33 98 -19 21 -40 53 -48 69 -9 20 -26 34 -49 41 -47 15 -185 22 -237 12z m178 -123 c34 -18 49 -50 49 -105 0 -31 -6 -44 -35 -69 -69 -60 -105 -35 -105 72 0 107 25 135 91 102z"/> <path d="M4020 2011 c-27 -5 -38 -14 -51 -40 -9 -19 -26 -38 -38 -42 -29 -11 -41 -48 -41 -123 0 -99 8 -126 42 -138 18 -7 34 -22 43 -44 17 -42 42 -49 157 -48 95 1 112 8 121 53 4 21 14 30 39 38 29 8 33 13 31 40 -2 27 2 33 29 42 38 13 51 1 43 -42 -5 -31 9 -40 82 -50 29 -3 46 -1 53 9 19 22 2 36 -107 89 -18 8 -33 20 -33 25 0 17 -49 11 -68 -8 -10 -10 -42 -28 -72 -41 -30 -13 -59 -27 -64 -32 -6 -5 -32 -9 -59 -9 -42 0 -54 5 -83 34 -28 28 -34 42 -34 76 0 34 6 48 34 76 27 27 42 34 74 34 22 0 53 -7 68 -15 16 -8 36 -15 45 -15 9 0 33 -11 54 -25 47 -32 90 -42 110 -25 9 7 37 23 64 35 43 20 50 28 65 75 9 29 15 55 12 57 -11 11 -35 -7 -38 -28 -4 -27 -16 -34 -89 -49 -80 -18 -137 1 -153 50 -8 27 -18 36 -41 41 -38 8 -149 8 -195 0z m380 -151 c0 -5 -16 -10 -36 -10 -21 0 -33 4 -29 10 3 6 19 10 36 10 16 0 29 -4 29 -10z"/> <path d="M4824 1861 c-74 -18 -67 -34 23 -52 52 -11 77 -10 148 2 47 7 87 19 88 24 6 28 -175 46 -259 26z"/> <path d="M5100 1708 c0 -48 5 -90 10 -93 17 -11 18 134 0 164 -6 11 -9 -11 -10 -71z"/> <path d="M4706 1757 c-22 -32 -24 -148 -4 -178 49 -75 109 -99 246 -99 61 0 88 5 130 25 53 25 58 30 43 54 -6 9 -14 10 -27 4 -14 -7 -278 -10 -336 -4 -5 1 -8 51 -8 111 0 90 -3 110 -15 110 -8 0 -21 -10 -29 -23z"/> <path d="M5160 1670 c0 -16 4 -30 9 -30 12 0 24 37 16 50 -12 20 -25 10 -25 -20z"/> <path d="M5597 1344 c-3 -3 -60 -7 -126 -8 -65 0 -123 -4 -127 -8 -12 -12 25 -46 63 -59 19 -6 68 -9 109 -7 64 3 78 7 100 30 17 16 24 32 21 42 -6 16 -28 21 -40 10z"/> </g> </svg> 